<svg height="438pt" viewBox="-31 0 438 438.26" width="438pt" xmlns="http://www.w3.org/2000/svg"><path d="m187.640625 0c103.378906 0 187.507813 80.28125 187.507813 179.261719 0 139.117187-187.507813 259-187.507813 259s-187.511719-119.882813-187.511719-259c0-98.980469 84.132813-179.261719 187.511719-179.261719zm136.898437 184.199219c0-75.605469-61.292968-136.898438-136.898437-136.898438-75.609375 0-136.902344 61.292969-136.902344 136.898438 0 75.609375 61.292969 136.902343 136.902344 136.902343 75.605469 0 136.898437-61.292968 136.898437-136.902343zm0 0" fill="#00acea"/><path d="m187.640625 47.300781c75.605469 0 136.898437 61.292969 136.898437 136.898438 0 75.609375-61.292968 136.902343-136.898437 136.902343-75.609375 0-136.902344-61.292968-136.902344-136.902343 0-75.605469 61.292969-136.898438 136.902344-136.898438zm0 0" fill="#00efd1"/><path d="m187.640625 101.128906 58.820313 153.179688-58.820313-38.96875-58.820313 38.96875zm0 0" fill="#fedb41"/></svg>